# xmcd
#
# Track frame offsets:
#	183
#	13878
#	31960
#	50988
#	65123
#	81263
#	98103
#	116168
#	133380
#	147553
#	167550
#
# Disc length: 2422 seconds
#
# Revision: 1
# Processed by: cddbd v1.5.1PL0 Copyright (c) Steve Scherf et al.
# Submitted via: audiograbber 1.83.01
#
DISCID=ab09740b
DTITLE=Diversos - Pra Quem Gosta de Samba
DYEAR=1900
DGENRE=Samba
TTITLE0=Conjunto Explosão do Samba - Do Jeito Que o Rei Mandou/Regra Três
TTITLE1=Conjunto Nosso Samba - Salgueiro Chorão/Nega Tijucana
TTITLE2=Conjunto Explosão do Samba - Pandeiro e Viola/Dona do Primeiro Andar
TTITLE3=Rubens da Mangueira - Reza Forte/Mocotó É Meu
TTITLE4=Conjunto Nosso Samba - Quando Vim de Minas/Fala Viola
TTITLE5=Rubens da Mangueira - Boi da Cara Preta/Porta Aberta
TTITLE6=Conjunto Explosão do Samba  - Retalhos de Cetim/Camisa Dez/Boa Noite
TTITLE7=Conjunto Nosso Samba - Serenou/Que Beleza
TTITLE8=Conjunto Explosão do Samba - Estrela de Madureira/Mulher Brasileira
TTITLE9=Conjunto Explosão do Samba - Meu Drama/Amei Demais
TTITLE10=Zé Carlos - O Amanhã
EXTD=
EXTT0=
EXTT1=
EXTT2=
EXTT3=
EXTT4=
EXTT5=
EXTT6=
EXTT7=
EXTT8=
EXTT9=
EXTT10=
PLAYORDER=
